<svg id="Capa_1" enable-background="new 0 0 512 512" height="512" viewBox="0 0 512 512" width="512" xmlns="http://www.w3.org/2000/svg"><g><g><path d="m200.062 95.108c-42.29-36.596-107.581.833-96.907 55.913-55.191-10.639-92.5 54.61-55.901 96.886-52.942 18.351-53.071 93.473 0 111.867-36.609 42.29 1.117 96.886 55.9 96.886h208.783v-361.551c-18.336-52.947-93.483-53.102-111.875-.001z" fill="#0caf7b"/><path d="m464.745 359.773c52.942-18.351 53.071-93.473 0-111.867 36.636-42.322-.754-107.516-55.9-96.886 10.618-54.786-54.331-92.752-96.906-55.911-15.004 12.729-23.936 32.761-19.45 55.911-55.191-10.639-92.5 54.61-55.901 96.886-52.942 18.351-53.071 93.473 0 111.867-36.609 42.29 1.117 96.886 55.9 96.886h116.355c58.344 0 92.505-54.605 55.902-96.886z" fill="#30cd9c"/></g><g fill="#70dcba"><path d="m460.493 299.437c-9.262-13.747-24.971-22.793-42.801-22.793s-33.539 9.046-42.801 22.793c-2.932 4.352-2.932 10.062 0 14.414 9.262 13.747 24.971 22.793 42.801 22.793s33.539-9.046 42.801-22.793c2.932-4.351 2.932-10.062 0-14.414z"/><path d="m364.188 147.133c-4.352-2.932-10.062-2.932-14.414 0-13.747 9.262-22.793 24.971-22.793 42.801s9.046 33.539 22.793 42.801c4.352 2.932 10.062 2.932 14.414 0 13.747-9.262 22.793-24.971 22.793-42.801 0-17.831-9.046-33.539-22.793-42.801z"/><path d="m346.795 360.639c-16.27-3.171-33.774 1.54-46.382 14.148s-17.319 30.112-14.148 46.382c1.004 5.15 5.042 9.188 10.192 10.192 16.27 3.171 33.774-1.54 46.382-14.147 12.608-12.608 17.319-30.112 14.148-46.382-1.004-5.151-5.042-9.189-10.192-10.193z"/><path d="m231.626 326c-17.83 0-33.539 9.046-42.801 22.793-2.932 4.352-2.932 10.062 0 14.414 9.262 13.746 24.97 22.793 42.801 22.793s33.539-9.046 42.801-22.793c2.932-4.352 2.932-10.062 0-14.414-9.262-13.747-24.971-22.793-42.801-22.793z"/><path d="m246.795 191.361c5.15-1.004 9.188-5.042 10.192-10.192 3.171-16.27-1.54-33.774-14.148-46.382s-30.112-17.319-46.382-14.147c-5.15 1.003-9.188 5.042-10.192 10.192-3.171 16.27 1.54 33.774 14.148 46.382 12.608 12.607 30.112 17.318 46.382 14.147z"/><path d="m140.795 316.639c-16.27-3.171-33.774 1.54-46.382 14.147-12.608 12.608-17.319 30.113-14.148 46.382 1.004 5.15 5.042 9.188 10.192 10.192 16.27 3.171 33.774-1.54 46.382-14.147 12.608-12.608 17.319-30.113 14.148-46.382-1.004-5.151-5.042-9.188-10.192-10.192z"/><path d="m100.457 186.639c-5.15 1.003-9.188 5.042-10.192 10.192-3.171 16.27 1.54 33.774 14.148 46.382s30.112 17.319 46.382 14.148c5.15-1.004 9.188-5.042 10.192-10.192 3.171-16.27-1.54-33.774-14.148-46.382s-30.112-17.319-46.382-14.148z"/></g><g fill="#ffdbe0"><path d="m176.443 269.444c-16.212 0-29.355 10.466-29.355 23.377s13.142 23.376 29.355 23.376c16.212 0 29.355-10.466 29.355-23.376s-13.142-23.377-29.355-23.377z"/><path d="m335.557 269.444c-16.212 0-29.355 10.466-29.355 23.377s13.143 23.376 29.355 23.376 29.355-10.466 29.355-23.376-13.143-23.377-29.355-23.377z"/></g><g><path d="m456.802 431.578c-12.034 11.337-29.065 17.581-47.957 17.581h-305.69c-47.774 0-82.85-46.797-50.23-84.477 3.466-4.004 1.796-10.258-3.214-11.996-25.592-8.869-34.711-31.035-34.711-48.82 0-17.81 9.119-40.002 34.711-48.874 5.002-1.733 6.685-7.986 3.214-11.995-8.349-9.644-12.762-21.177-12.762-33.352 0-29.504 25.84-58.147 61.573-51.262.01.002.019.002.029.004 5.193.984 9.76-3.592 8.753-8.795-3.157-16.3 1.061-31.705 11.637-43.588 2.754-3.095 2.478-7.835-.616-10.589-3.093-2.751-7.834-2.478-10.589.616-11.555 12.983-17.225 29.181-16.374 46.414-19.362-.942-37.52 6.462-50.807 20.622-11.824 12.602-18.606 29.578-18.606 46.577 0 12.551 3.569 24.534 10.4 35.144-21.891 11.375-35.563 33.625-35.563 59.078 0 25.412 13.657 47.633 35.527 59.007-30.133 46.085 9.865 101.286 67.628 101.286h305.689c22.73 0 43.415-7.693 58.242-21.663 3.016-2.841 3.157-7.587.316-10.602-2.839-3.014-7.586-3.155-10.6-.316z"/><path d="m512 303.812c0-25.427-13.671-47.657-35.562-59.024 28.785-44.693-5.707-104.935-59.017-102.342 2.568-53.079-57.513-87.946-102.364-59.032-11.371-21.898-33.625-35.573-59.088-35.573-25.434 0-47.662 13.688-59.026 35.593-17.991-11.577-39.291-13.273-58.45-6.169-3.884 1.439-5.865 5.755-4.425 9.639 1.439 3.885 5.755 5.865 9.639 4.426 16.976-6.293 34.894-4.093 51.615 9.581 4.024 3.294 10.131 1.568 11.828-3.347 8.867-25.601 31.033-34.722 48.819-34.722 17.818 0 40.016 9.122 48.883 34.723 1.737 5.02 8.001 6.676 11.994 3.218 37.268-32.246 93.841 1.306 84.635 48.812-1.008 5.206 3.572 9.796 8.784 8.791 48.582-9.372 80.674 47.799 48.809 84.614-3.465 4.004-1.795 10.257 3.215 11.995 25.593 8.867 34.711 31.031 34.711 48.817 0 17.811-9.119 40.003-34.711 48.875-5.003 1.733-6.685 7.986-3.215 11.995 11.239 12.982 16.311 28.954 11.482 45.119-1.438 4.81 2.173 9.649 7.188 9.649 3.229 0 6.211-2.103 7.184-5.354 4.896-16.386 2.629-34.539-8.431-51.238 21.855-11.382 35.503-33.617 35.503-59.046z"/><path d="m368.671 295.247c-4.665 6.924-4.665 15.871 0 22.796 23.436 34.778 74.61 34.774 98.042-.001 4.665-6.924 4.665-15.871 0-22.795-23.441-34.79-74.618-34.766-98.042 0zm85.602 8.381c1.234 1.833 1.234 4.201 0 6.032-16.195 24.035-50.661 26.167-69.7 4.484h33.119c4.143 0 7.5-3.357 7.5-7.5s-3.357-7.5-7.5-7.5h-33.12c19.001-21.639 53.478-19.593 69.701 4.484z"/><path d="m368.379 140.913c-6.924-4.666-15.871-4.666-22.795 0-34.779 23.431-34.775 74.612-.001 98.041 6.939 4.675 15.885 4.658 22.796 0 34.79-23.438 34.766-74.619 0-98.041zm-3.898 82.139v-30.734c0-4.143-3.357-7.5-7.5-7.5s-7.5 3.357-7.5 7.5v30.735c-21.64-18.999-19.594-53.479 4.483-69.7 1.831-1.234 4.199-1.235 6.033 0 24.035 16.194 26.168 50.66 4.484 69.699z"/><path d="m278.903 422.604c1.597 8.196 7.925 14.522 16.119 16.118 41.275 8.051 77.326-28.291 69.326-69.324-1.596-8.195-7.922-14.522-16.118-16.12-41.171-8.028-77.347 28.179-69.327 69.326zm60.832-55.32-23.412 23.414c-2.929 2.929-2.929 7.677 0 10.606 2.929 2.928 7.678 2.929 10.606-.001l23.418-23.418c1.869 28.74-23.959 51.665-52.457 46.115-2.168-.423-3.842-2.097-4.265-4.265-5.522-28.34 17.19-54.315 46.11-52.451z"/><path d="m182.604 344.603c-4.665 6.924-4.665 15.871 0 22.796 23.441 34.789 74.618 34.764 98.042 0 4.666-6.925 4.666-15.872 0-22.796-23.431-34.78-74.611-34.775-98.042 0zm85.603 14.414c-16.194 24.034-50.661 26.166-69.699 4.483h33.118c4.142 0 7.5-3.357 7.5-7.5s-3.358-7.5-7.5-7.5h-33.119c19.036-21.682 53.507-19.553 69.7 4.484 1.234 1.832 1.234 4.2 0 6.033z"/><path d="m195.022 113.277c-8.194 1.597-14.521 7.924-16.119 16.119-8.002 41.058 28.07 77.374 69.326 69.325 8.194-1.597 14.521-7.924 16.119-16.118 8.024-41.171-28.178-77.348-69.326-69.326zm54.603 66.456c-.423 2.169-2.097 3.843-4.266 4.266-28.453 5.541-54.325-17.323-52.455-46.114l23.419 23.418c2.93 2.929 7.678 2.928 10.606 0 2.929-2.93 2.929-7.678 0-10.607l-23.413-23.412c28.906-1.877 51.632 24.112 46.109 52.449z"/><path d="m142.229 309.277c-41.168-8.028-77.347 28.178-69.326 69.326 1.597 8.194 7.924 14.521 16.119 16.118 41.173 8.031 77.346-28.178 69.326-69.325-1.597-8.195-7.924-14.522-16.119-16.119zm-50.337 70.722c-2.169-.423-3.843-2.097-4.266-4.265-5.331-27.357 15.645-52.555 43.249-52.555.432 0 .865.019 1.298.031l-20.169 20.169c-2.929 2.93-2.929 7.678 0 10.607 2.93 2.929 7.678 2.928 10.606 0l21.599-21.6c2.915 29.424-23.324 53.263-52.317 47.613z"/><path d="m168.348 248.604c8.025-41.176-28.181-77.345-69.326-69.326-8.194 1.597-14.521 7.924-16.119 16.119-8.002 41.058 28.07 77.374 69.326 69.325 8.195-1.597 14.522-7.924 16.119-16.118zm-70.722-50.338c.423-2.168 2.097-3.843 4.266-4.266 28.443-5.543 54.326 17.316 52.456 46.114l-23.418-23.418c-2.929-2.928-7.678-2.928-10.606 0-2.929 2.93-2.929 7.678 0 10.607l23.417 23.417c-28.802 1.871-51.657-24.016-46.115-52.454z"/><path d="m201.051 270.317v-12c0-4.143-3.358-7.5-7.5-7.5s-7.5 3.357-7.5 7.5v12c0 4.143 3.358 7.5 7.5 7.5s7.5-3.357 7.5-7.5z"/><path d="m310.949 258.317v12c0 4.143 3.358 7.5 7.5 7.5s7.5-3.357 7.5-7.5v-12c0-4.143-3.358-7.5-7.5-7.5s-7.5 3.358-7.5 7.5z"/><path d="m277.392 264.306c-3.123-2.721-7.861-2.396-10.582.727-5.724 6.57-15.9 6.566-21.62 0-2.722-3.122-7.459-3.447-10.582-.727-3.123 2.722-3.448 7.459-.727 10.582 11.706 13.431 32.544 13.416 44.237 0 2.722-3.123 2.397-7.861-.726-10.582z"/></g></g></svg>