<?xml version="1.0" encoding="UTF-8" standalone="no"?>
<!-- Generator: Adobe Illustrator 19.0.0, SVG Export Plug-In . SVG Version: 6.00 Build 0)  -->

<svg
   version="1.1"
   id="Capa_1"
   x="0px"
   y="0px"
   viewBox="0 0 512 512"
   style="enable-background:new 0 0 512 512;"
   xml:space="preserve"
   sodipodi:docname="strawberry.svg"
   inkscape:version="1.1 (c68e22c387, 2021-05-23)"
   xmlns:inkscape="http://www.inkscape.org/namespaces/inkscape"
   xmlns:sodipodi="http://sodipodi.sourceforge.net/DTD/sodipodi-0.dtd"
   xmlns="http://www.w3.org/2000/svg"
   xmlns:svg="http://www.w3.org/2000/svg"><defs
   id="defs1050" /><sodipodi:namedview
   id="namedview1048"
   pagecolor="#505050"
   bordercolor="#eeeeee"
   borderopacity="1"
   inkscape:pageshadow="0"
   inkscape:pageopacity="0"
   inkscape:pagecheckerboard="0"
   showgrid="false"
   inkscape:zoom="1.2734375"
   inkscape:cx="255.60736"
   inkscape:cy="256"
   inkscape:window-width="1600"
   inkscape:window-height="838"
   inkscape:window-x="-8"
   inkscape:window-y="-8"
   inkscape:window-maximized="1"
   inkscape:current-layer="Capa_1" />
<path
   style="fill:#368B4C;"
   d="M278.331,149.454c-5.628,1.853-11.686,3.465-18.205,4.807c0,0-3.605-8.682-5.878-22.13  c-5.047-29.891-3.515-83.364,58.84-117.481c3.725-2.033,7.671-4.005,11.836-5.898c8.101-3.675,17.544,1.142,19.386,9.843  c0.801,3.805,1.592,8.171,2.243,12.958C351.341,67.432,347.576,126.663,278.331,149.454z"
   id="path967" />
<path
   style="fill:#3FA45A;"
   d="M254.248,132.131c-5.047-29.891-3.515-83.364,58.84-117.481c0.15,0.941,0.29,1.903,0.421,2.884  C318.075,51.801,314.851,107.357,254.248,132.131z"
   id="path969" />
<path
   style="fill:#999999"
   d="M189.349,204.92c-50.379,85.797-125.061,54.084-155.563,35.919  c-7.64-4.556-9.153-15.041-3.064-21.519c5.117-5.447,10.234-10.254,15.331-14.47c61.604-51.03,120.194-16.833,137.889-4.126  C187.447,203.248,189.349,204.92,189.349,204.92z"
   id="path971" />
<path
   style="fill:#3FA45A;"
   d="M183.942,200.724c-48.206,49.017-107.727,23.132-134.133,7.4c-1.492-0.891-2.754-2.003-3.755-3.274  C107.658,153.82,166.248,188.017,183.942,200.724z"
   id="path973" />
<path
   style="fill:#4CBA68;"
   d="M227.081,185.554c-82.333,55.866-136.176-4.837-155.923-34.347  c-4.947-7.39-1.802-17.504,6.479-20.748c6.259-2.453,12.297-4.426,18.115-5.978c68.474-18.305,106.736,22.14,122.568,45.692  C224.297,179.065,227.081,185.554,227.081,185.554z"
   id="path975" />
<path
   style="fill:#ececec"
   d="M218.319,170.173c-61.654,23.452-103.542-19.176-122.568-45.692  C164.225,106.175,202.487,146.62,218.319,170.173z"
   id="path977" />
<path
   style="fill:#4CBA68;"
   d="M230.184,183.787c79.229-60.186,38.895-130.593,17.234-158.729  c-5.424-7.048-16.012-7.297-21.731-0.485c-4.323,5.148-8.12,10.24-11.449,15.258c-39.209,59.046-13.097,108.219,4.168,130.741  C224.923,179.078,230.184,183.787,230.184,183.787z"
   id="path979" />
<path
   style="fill:#64C37D;"
   d="M218.405,170.573c41.909-50.94,14.886-104.245-4.168-130.741  C175.029,98.877,201.141,148.05,218.405,170.573z"
   id="path981" />
<path
   style="fill:#C70024;"
   d="M463.865,458.467c-1.091,2.984-2.363,5.848-3.815,8.602c-12.938,24.574-39.524,39.484-67.793,37.191  c-108.879-8.862-207.223-78.377-207.223-78.377c-78.367-52.011-88.1-164.935-18.515-214.734l2.373-1.692l50.799-36.37l53.173-38.052  c69.585-49.798,173.517-4.216,197.28,86.789C498.202,329.23,481.098,411.312,463.865,458.467z"
   id="path983" />
<path
   style="fill:#FF0C38;"
   d="M463.865,458.467c-1.091,2.984-2.363,5.848-3.815,8.602c-11.536,6.098-24.824,9.012-38.503,7.901  c-108.879-8.862-207.223-78.377-207.223-78.377c-66.08-43.86-83.364-131.019-45.432-187.136l50.799-36.37l53.173-38.052  c69.585-49.798,173.517-4.216,197.28,86.789C498.202,329.23,481.098,411.312,463.865,458.467z"
   id="path985" />
<ellipse
   transform="matrix(-0.8132 0.582 -0.582 -0.8132 529.3708 493.4775)"
   cx="185.488"
   cy="331.697"
   rx="9.022"
   ry="16.247"
   id="ellipse987" />
<ellipse
   transform="matrix(0.8132 -0.582 0.582 0.8132 -103.9842 173.6438)"
   cx="218.5"
   cy="248.802"
   rx="9.022"
   ry="16.247"
   id="ellipse989" />
<ellipse
   transform="matrix(-0.8132 0.582 -0.582 -0.8132 719.1804 373.2432)"
   cx="299.689"
   cy="302.042"
   rx="9.022"
   ry="16.247"
   id="ellipse991" />
<ellipse
   transform="matrix(0.8132 -0.582 0.582 0.8132 -26.5242 275.1363)"
   cx="415.329"
   cy="178.886"
   rx="9.022"
   ry="16.247"
   id="ellipse993" />
<ellipse
   transform="matrix(-0.582 -0.8132 0.8132 -0.582 391.2289 759.6775)"
   cx="390.863"
   cy="279.287"
   rx="16.247"
   ry="9.022"
   id="ellipse995" />
<ellipse
   transform="matrix(-0.8132 0.582 -0.582 -0.8132 1012.7191 402.867)"
   cx="441.704"
   cy="363.964"
   rx="9.022"
   ry="16.247"
   id="ellipse997" />
<ellipse
   transform="matrix(0.8132 -0.582 0.582 0.8132 -176.4079 268.6759)"
   cx="330.323"
   cy="409.136"
   rx="9.022"
   ry="16.247"
   id="ellipse999" />
<ellipse
   transform="matrix(0.8132 -0.582 0.582 0.8132 -186.1726 322.0207)"
   cx="408.538"
   cy="451.019"
   rx="9.022"
   ry="16.247"
   id="ellipse1001" />
<ellipse
   transform="matrix(0.8132 -0.582 0.582 0.8132 -196.13 209.0079)"
   cx="227.515"
   cy="410.023"
   rx="9.022"
   ry="16.247"
   id="ellipse1003" />
<ellipse
   transform="matrix(0.8132 -0.582 0.582 0.8132 -52.0618 221.2629)"
   cx="318.639"
   cy="191.73"
   rx="9.022"
   ry="16.247"
   id="ellipse1005" />
<path
   d="M484.513,355.756c-4.156-0.31-7.741,2.794-8.051,6.929c-2.453,32.895-9.062,64.258-19.647,93.207  c-8.982,24.574-32.635,41.086-58.84,41.086c-1.692,0-3.415-0.07-5.107-0.21c-105.484-8.582-202.537-76.334-203.498-77.015  c-0.06-0.05-0.12-0.09-0.18-0.13c-25.525-16.933-44.961-42.138-54.755-70.957c-1.332-3.925-5.598-6.028-9.523-4.696  c-3.925,1.332-6.028,5.598-4.696,9.523c10.835,31.924,32.344,59.822,60.573,78.587c1.953,1.372,26.236,18.265,63.757,36.43  c35.428,17.143,89.703,38.563,147.101,43.229c2.103,0.17,4.226,0.26,6.329,0.26c32.494,0,61.804-20.478,72.94-50.95  c11.065-30.251,17.965-62.976,20.528-97.243C491.743,359.672,488.649,356.067,484.513,355.756z"
   id="path1007" />
<path
   d="M121.587,329.3c4.116-0.481,7.07-4.206,6.589-8.331c-0.581-4.977-0.881-10.014-0.881-14.95  c0-16.946,3.514-32.853,9.111-45.648c13.138-30.661,36.317-44.126,36.992-44.915l0.499-0.349c0.004-0.003,0.011-0.008,0.019-0.014  c-0.007,0.005-0.013,0.01-0.019,0.013l0.001-0.001c0.02-0.014,0.035-0.025,0.048-0.034c0.011-0.008,0.021-0.015,0.036-0.026  c-0.003,0.002-0.007,0.005-0.012,0.009c0.014-0.01,0.018-0.013,0.016-0.011c1.065-0.762,12.124-8.678,103.243-73.898  c65.337-46.782,163.228-3.268,185.654,82.583c9.663,37.001,14.59,73.841,14.64,109.52c0.01,4.146,3.375,7.5,7.51,7.5  c4.137,0,7.52-3.353,7.51-7.52c-0.06-36.951-5.147-75.073-15.131-113.295c-16.583-63.487-72.559-110.081-134.434-112.774  c6.369-12.036,9.683-24.493,11.245-35.869c0.571-4.116-2.303-7.901-6.419-8.462c-4.106-0.571-7.891,2.303-8.462,6.409  c-2.033,14.77-6.739,27.568-14.089,38.392c-15.071,1.492-29.54,5.788-42.789,12.707c0.551-2.724,0.981-5.467,1.292-8.241  c0.471-4.126-2.503-7.841-6.619-8.301c-4.136-0.461-7.841,2.503-8.301,6.629c-0.871,7.761-2.904,15.301-6.088,22.611l-40.796,29.2  c-2.447-3.407-4.408-5.774-5.107-6.659c-8.071-13.198-15.842-31.463-15.842-52.922c0-24.744,10.234-49.408,30.422-73.31  c1.652-1.963,3.765-2.253,4.877-2.253c2.033,0,3.915,0.921,5.147,2.533c5.327,6.97,11.576,16.282,16.803,27.207  c3.977,8.263,7.151,17.033,9.072,26.116c0.861,4.056,4.847,6.649,8.902,5.798c4.056-0.861,6.649-4.847,5.798-8.912  c-1.632-7.67-3.995-14.97-6.799-21.79c10.234-15.621,26.757-30.632,52.802-42.448c0.841-0.381,1.722-0.571,2.614-0.571  c2.604,0,5.608,1.762,6.319,5.127c1.462,6.909,2.483,13.889,3.034,20.728c0.33,4.136,3.935,7.22,8.081,6.889  c4.136-0.33,7.22-3.945,6.889-8.081c-0.601-7.49-1.712-15.111-3.305-22.651C349.568,7.16,340.726,0,330.643,0  c-3.044,0-6.018,0.641-8.822,1.913c-25.114,11.386-42.388,25.515-54.084,40.525c-4.746-8.622-9.843-16.042-14.35-21.94  c-4.106-5.357-10.324-8.432-17.083-8.432c-6.319,0-12.287,2.764-16.352,7.58c-22.541,26.686-33.966,54.615-33.966,83.003  c0,3.875,0.23,7.65,0.631,11.325L153.54,67.763c-2.413-3.375-7.11-4.146-10.484-1.742c-3.365,2.423-4.146,7.11-1.732,10.484  l32.434,45.312c-23.702-10.655-56.427-14.96-98.865,1.652c-6.058,2.373-10.665,7.3-12.617,13.528  c-1.963,6.249-0.991,12.958,2.644,18.385c3.955,5.908,9.363,13.208,16.172,20.668c-19.727,6.819-38.413,19.557-55.846,38.122  c-3.735,3.975-5.788,9.173-5.788,14.63c0,7.66,3.915,14.57,10.484,18.485c6.639,3.955,13.518,7.48,20.428,10.464  c3.815,1.642,8.231-0.11,9.874-3.915c1.642-3.815-0.11-8.231-3.915-9.874c-6.319-2.734-12.617-5.958-18.696-9.583  c-1.983-1.172-3.154-3.254-3.154-5.578c0-1.142,0.29-2.824,1.722-4.346c17.874-19.036,37.031-31.213,57.148-36.38  c16.32,14.27,35.337,24.306,56.587,27.017c-10.984,10.363-19.775,22.718-26.093,36.484c-13.245,3.607-26.931,3.529-40.458,0.907  c-4.076-0.781-8.011,1.873-8.802,5.948c-0.791,4.076,1.873,8.011,5.948,8.802c7.4,1.432,14.74,2.163,21.81,2.163h0.01  c5.217,0,10.304-0.381,15.261-1.132c-3.505,11.916-5.337,24.594-5.337,37.752c0,5.518,0.33,11.135,0.981,16.693  C113.736,326.837,117.471,329.781,121.587,329.3z M114.097,185.233c-6.028-4.116-11.466-8.752-16.312-13.488  c-8.892-8.712-15.742-17.784-20.388-24.714c-1.091-1.632-1.382-3.655-0.781-5.538c0.34-1.091,1.282-3.074,3.755-4.046  c17.274-6.759,33.576-10.134,48.827-10.134c29.048,0,53.826,12.473,72.96,34.187l5.708,7.981c0.441,0.641,0.881,1.272,1.322,1.883  l-40.766,29.18C150.035,202.084,131.761,197.325,114.097,185.233z"
   id="path1009" />
<path
   d="M173.986,215.041c-0.001,0.001-0.003,0.002-0.004,0.003C173.984,215.042,173.985,215.042,173.986,215.041z"
   id="path1011" />
<path
   d="M173.894,215.107C173.884,215.114,173.882,215.115,173.894,215.107L173.894,215.107z"
   id="path1013" />
<polygon
   points="173.894,215.107 173.897,215.105 173.896,215.105 "
   id="polygon1015" />
<g
   id="g1017">
</g>
<g
   id="g1019">
</g>
<g
   id="g1021">
</g>
<g
   id="g1023">
</g>
<g
   id="g1025">
</g>
<g
   id="g1027">
</g>
<g
   id="g1029">
</g>
<g
   id="g1031">
</g>
<g
   id="g1033">
</g>
<g
   id="g1035">
</g>
<g
   id="g1037">
</g>
<g
   id="g1039">
</g>
<g
   id="g1041">
</g>
<g
   id="g1043">
</g>
<g
   id="g1045">
</g>
<path
   style="fill:#cccccc;stroke-width:0.785276"
   d="m 421.30061,474.62288 c -1.51165,-0.16993 -6.10552,-0.68215 -10.20859,-1.13826 -48.31107,-5.37037 -103.67875,-24.33316 -158.87211,-54.41187 -12.26281,-6.68285 -13.30543,-7.42607 -14.63545,-10.43267 -1.87134,-4.23031 -6.63329,-9.44679 -10.35851,-11.34726 -3.15234,-1.60819 -8.89437,-2.03919 -9.70448,-0.7284 -0.82621,1.33683 -1.52637,0.96367 -9.87669,-5.26384 -28.70596,-21.40838 -48.62851,-53.18563 -55.82799,-89.04786 -1.51953,-7.56913 -1.79901,-11.43906 -1.80905,-25.05027 -0.0134,-18.14235 0.83557,-24.09519 5.59955,-39.2638 2.67921,-8.53067 3.08161,-9.26981 7.26759,-13.34969 2.43723,-2.37546 10.42915,-8.58591 17.75982,-13.801 7.33067,-5.21509 33.3205,-23.7878 57.75519,-41.27269 45.53522,-32.58393 52.91029,-37.25564 65.56953,-41.53473 12.26333,-4.14527 18.29383,-5.04413 33.70929,-5.02443 11.57092,0.0148 15.58049,0.33119 22.10376,1.74421 40.43989,8.7598 74.44283,35.62907 92.94527,73.44573 5.7895,11.833 9.12068,21.95916 13.21965,40.18524 6.33266,28.1582 9.84009,54.87778 10.96419,83.52525 l 0.59669,15.20624 2.17809,1.87352 c 1.19795,1.03044 2.91137,1.87352 3.8076,1.87352 1.446,0 1.57469,0.33162 1.14277,2.94478 -0.26771,1.61963 -0.49063,4.97669 -0.49538,7.46012 -0.008,4.24606 -0.12157,4.51534 -1.90204,4.51534 -3.27739,0 -5.75626,3.90592 -6.34404,9.9962 -3.12174,32.3458 -9.07622,60.57454 -18.18279,86.20012 -2.55721,7.19591 -6.5261,15.25327 -9.17836,18.63327 -1.97047,2.51114 -18.75097,5.01571 -27.22351,4.06323 z m -2.85437,-10.58172 c 1.80612,-1.42069 2.06691,-2.19417 2.05185,-6.08589 -0.0217,-5.61747 -1.94078,-9.93567 -6.65558,-14.97617 -4.14869,-4.43528 -7.68042,-6.3656 -11.64652,-6.3656 -10.5028,0 -5.98627,19.82866 6.09492,26.75818 4.71724,2.70571 7.34635,2.87904 10.15533,0.66948 z m -77.63642,-42.45331 c 1.19589,-1.15117 1.56124,-2.50479 1.53154,-5.67432 -0.12295,-13.11814 -16.67478,-26.73049 -23.09553,-18.99396 -1.55157,1.86953 -1.19504,8.37829 0.69269,12.64582 3.02505,6.83862 8.30188,11.99593 14.01116,13.6938 2.68727,0.79916 4.83801,0.27517 6.86014,-1.67134 z m 110.32002,-43.86403 c 0.80082,-0.42859 1.87337,-2.04377 2.38344,-3.5893 1.852,-5.61164 -1.7544,-14.01484 -8.69152,-20.25191 -6.06627,-5.45408 -12.08999,-5.93566 -14.55761,-1.16382 -4.11877,7.96482 7.75231,25.75877 17.19852,25.77944 1.21612,0.002 2.86635,-0.34583 3.66717,-0.77441 z M 195.5115,344.61339 c 2.00465,-1.57685 2.1317,-2.02407 1.84667,-6.50041 -0.35546,-5.58231 -2.56993,-10.41612 -6.7995,-14.84209 -8.59226,-8.99127 -18.18068,-7.71853 -17.16672,2.27866 0.53191,5.24446 3.13986,10.62905 7.1271,14.71521 5.76634,5.90938 11.05727,7.44404 14.99245,4.34863 z M 309.75388,315.084 c 4.24809,-3.43989 1.96362,-13.8477 -4.57349,-20.83641 -6.31995,-6.75654 -12.30866,-8.59628 -15.81904,-4.85965 -3.99859,4.25631 -1.2551,14.58251 5.66967,21.34004 5.83904,5.698 11.13173,7.26394 14.72286,4.35602 z m 91.94034,-23.55026 c 4.38497,-5.53751 -1.59478,-19.44833 -10.57409,-24.59868 -4.71723,-2.7057 -7.34634,-2.87903 -10.15533,-0.66948 -1.80527,1.42002 -2.06909,2.20141 -2.06909,6.12803 0,5.58207 2.48571,10.92729 7.24181,15.5726 6.3719,6.22346 12.36519,7.59788 15.5567,3.56753 z M 228.90798,261.49693 c 3.85027,-3.85028 0.39947,-16.36053 -6.08277,-22.05202 -11.23134,-9.86124 -20.1568,-4.54818 -15.0935,8.9847 1.86314,4.9797 6.79787,10.91287 10.86294,13.06084 3.81975,2.01834 8.29865,2.02116 10.31333,0.006 z m 97.99464,-55.4725 c 0.98907,-0.26495 2.31422,-1.47938 2.94478,-2.69874 4.5219,-8.74439 -6.91099,-25.8533 -17.27624,-25.8533 -4.14812,0 -5.92485,2.18609 -5.90361,7.26381 0.032,7.63227 5.52577,16.18223 12.69294,19.75378 4.3896,2.18743 4.79592,2.2701 7.54213,1.53445 z m 99.12984,-15.00603 c 4.71619,-5.97432 -2.42533,-21.00059 -12.06,-25.3751 -4.38888,-1.99273 -6.50381,-1.895 -8.8057,0.40689 -3.91439,3.91439 -1.77826,13.57286 4.53157,20.48946 6.31066,6.9175 12.96797,8.74291 16.33413,4.47875 z"
   id="path1125" /><path
   style="fill:#999999;stroke-width:0.785276"
   d="M 383.29347,495.4595 C 350.43745,491.64789 311.39495,480.72282 274.29283,464.95837 236.44029,448.8751 191.9384,423.29108 174.19518,407.41252 157.80642,392.74606 144.3909,373.5312 137.01476,354.15951 c -2.87173,-7.54189 -5.81283,-10.99387 -9.36687,-10.99387 -2.5486,0 -2.58636,-0.0715 -4.24025,-8.03039 l -1.0976,-5.28194 2.64866,-1.56275 c 1.45676,-0.85951 2.70229,-2.01638 2.76784,-2.57082 0.0655,-0.55445 0.17868,-8.42894 0.25141,-17.49888 0.1092,-13.61861 0.43662,-17.96789 1.8799,-24.97161 2.93707,-14.25263 7.97555,-26.78027 15.38094,-38.24312 3.55921,-5.5093 11.38524,-15.22055 11.87286,-14.73292 0.16442,0.16441 -0.42056,2.19249 -1.29995,4.50685 -0.87938,2.31435 -2.44381,7.77059 -3.47651,12.12497 -7.89918,33.30701 -1.86258,71.08385 16.26048,101.75755 9.7788,16.55085 23.89329,32.28107 39.05376,43.52437 l 8.18931,6.07335 -0.19722,4.25761 c -0.14716,3.17682 0.29969,5.343 1.76028,8.53336 3.90728,8.53461 13.32536,15.17173 18.49195,13.03166 2.75251,-1.14013 4.30475,-4.46147 3.86111,-8.26163 -0.17761,-1.52134 -0.23924,-2.76609 -0.13697,-2.76609 0.10228,0 4.00679,2.13472 8.67667,4.74382 46.21053,25.8181 96.81609,44.91609 140.23633,52.92366 23.68776,4.3685 40.91533,5.58033 51.50157,3.62275 2.74423,-0.50745 5.19369,-0.71847 5.44325,-0.46891 0.24957,0.24957 -0.75891,1.71446 -2.24104,3.25534 -7.53804,7.83678 -21.27068,15.54432 -31.90503,17.90693 -6.02207,1.3379 -18.51408,1.52536 -28.03617,0.4207 z"
   id="path1201" /><path
   style="fill:#e6e6e6;stroke-width:0.785276"
   d="m 410.30675,473.04225 c -38.8473,-5.19649 -75.09518,-15.74287 -116.0152,-33.75481 -12.64869,-5.56763 -43.79956,-21.32406 -50.22172,-25.40265 -2.94019,-1.86727 -5.38881,-4.11643 -6.19348,-5.68895 -2.27487,-4.4457 -5.83305,-8.4275 -9.39766,-10.5165 -2.88023,-1.68793 -4.22305,-1.96942 -8.4823,-1.77814 l -5.06035,0.22725 -7.45804,-5.67981 c -29.9347,-22.79733 -50.36763,-56.70575 -55.93799,-92.82901 -1.36086,-8.82503 -1.51196,-28.8799 -0.29288,-38.87116 1.0509,-8.61282 5.57174,-24.70286 8.20173,-29.1906 1.06041,-1.80945 4.84276,-5.63065 8.40522,-8.49156 8.12195,-6.52249 97.27673,-70.17985 110.52629,-78.91681 23.27483,-15.34779 37.71956,-19.53796 64.30786,-18.65462 10.20239,0.33895 13.78667,0.80324 21.38627,2.77028 33.0656,8.55854 61.16376,28.72684 79.77943,57.2641 5.12295,7.85333 12.70033,23.50784 15.50326,32.02902 8.54514,25.97805 14.9862,65.35677 16.95479,103.65644 0.5106,9.93375 1.25633,18.47052 1.65719,18.97062 0.40086,0.50008 1.94939,1.48844 3.44119,2.19634 2.67867,1.27112 2.71137,1.34757 2.63406,6.15823 -0.10726,6.67485 -0.7739,8.65377 -3.09146,9.17693 -2.86968,0.6478 -5.17248,5.84129 -5.82671,13.14089 -1.35533,15.12217 -5.57599,39.6949 -9.5472,55.58399 -3.10108,12.4076 -10.28266,33.25591 -13.50134,39.19471 -1.61796,2.98532 -3.83508,6.09481 -4.92692,6.90999 -4.6115,3.44298 -21.30814,4.57402 -36.84404,2.49583 z m 8.54193,-8.65105 c 1.69011,-1.1838 1.80355,-1.72593 1.54631,-7.39026 -0.25586,-5.63438 -0.52385,-6.47157 -3.42439,-10.69795 -4.23194,-6.16636 -9.52631,-9.68949 -14.56083,-9.68949 -4.76048,0 -6.23827,1.76237 -6.23737,7.43853 0.002,12.46986 14.87086,25.8063 22.67628,20.33917 z m -79.27294,-41.49099 c 3.54332,-1.83233 4.15142,-5.64883 2.01516,-12.64725 -3.28625,-10.76577 -15.86248,-19.27617 -21.60304,-14.61888 -1.69803,1.3776 -1.9405,2.17959 -1.86966,6.18416 0.10211,5.77236 2.23763,10.73509 6.7198,15.61616 3.32873,3.62498 8.27296,6.5629 11.10284,6.59744 0.77727,0.01 2.41298,-0.49975 3.6349,-1.13163 z m 113.07892,-46.46624 c 6.01814,-7.65081 -6.09347,-26.98612 -16.90407,-26.98612 -6.99288,0 -8.61554,6.74862 -3.89254,16.18897 4.24729,8.4895 9.63684,12.85219 15.88864,12.86141 2.61185,0.004 3.61213,-0.41686 4.90797,-2.06426 z M 195.75165,345.08431 c 1.48801,-1.04224 1.74274,-1.93937 1.72804,-6.08589 -0.0385,-10.84904 -8.96105,-21.74689 -17.80521,-21.74689 -4.78789,0 -6.52129,1.93101 -6.52049,7.26381 0.001,7.41912 6.02088,16.97273 12.95644,20.56241 3.02325,1.56477 7.41231,1.56775 9.64122,0.006 z m 113.72589,-29.21903 c 2.7875,-1.86127 3.40075,-7.21416 1.46701,-12.80515 -3.81954,-11.0434 -16.38499,-19.26386 -21.55034,-14.09851 -7.09209,7.09209 4.78274,27.53402 15.97061,27.49262 1.78678,-0.006 3.63749,-0.27165 4.11272,-0.58896 z M 400.042,293.32966 c 1.22192,-0.63188 2.44118,-1.72091 2.70947,-2.42006 1.07517,-2.80186 0.416,-8.72409 -1.40676,-12.63883 -4.7951,-10.29841 -14.9922,-16.4108 -20.70372,-12.41029 -1.49799,1.04923 -1.74528,1.94295 -1.74528,6.30743 0,5.73135 1.22646,9.27216 4.75472,13.72696 2.88836,3.64685 6.2085,6.11844 10.07527,7.50028 3.63312,1.29833 3.67989,1.29784 6.3163,-0.0655 z M 229.26065,261.5411 c 3.65684,-4.04076 -0.25834,-17.787 -6.45242,-22.65457 -6.72858,-5.28759 -11.45952,-6.23302 -14.74577,-2.94676 -5.02753,5.02753 0.46319,19.83796 9.32353,25.14887 4.1641,2.49596 9.82994,2.71184 11.87466,0.45246 z m 100.10567,-57.08259 c 6.25987,-7.95814 -5.24055,-26.98612 -16.31028,-26.98612 -5.13366,0 -6.40979,1.47528 -6.38849,7.38551 0.0211,5.86311 1.80029,10.0603 6.36252,15.00974 6.19186,6.71737 13.12987,8.66713 16.33625,4.59087 z m 95.01923,-11.64419 c 2.68313,-1.3875 3.1996,-2.57878 3.1896,-7.35707 -0.0264,-12.60934 -16.16094,-26.40142 -22.71906,-19.42062 -5.49415,5.84826 1.72868,21.74519 11.99871,26.40828 3.96692,1.80118 4.69314,1.8368 7.53075,0.36941 z"
   id="path1277" /><path
   style="fill:#ececec;stroke-width:0.785276"
   d="M 104.83436,227.98087 C 87.6648,225.17715 70.582361,219.35798 56.63049,211.56013 l -3.600876,-2.01257 2.14777,-1.77102 c 7.432439,-6.12866 21.885183,-13.98057 31.956636,-17.36145 l 5.885938,-1.97584 5.318242,4.29709 c 7.10408,5.74004 19.57795,13.15149 27.30597,16.22407 3.45522,1.37376 10.0318,3.42156 14.61464,4.55066 l 8.33243,2.05292 -5.19132,5.60746 c -5.05237,5.45736 -5.32969,5.63071 -10.35995,6.47568 -4.85185,0.815 -23.87972,1.04015 -28.20561,0.33374 z"
   id="path1506" /><path
   style="fill:#ececec;stroke-width:0.785276"
   d="m 218.75993,157.20336 c -1.82142,-2.45694 -4.86466,-7.67864 -6.76276,-11.60377 -14.18571,-29.33511 -14.0518,-57.140748 0.41661,-86.507565 3.03225,-6.154602 5.84807,-11.190185 6.25739,-11.190185 2.07342,0 12.64806,21.36154 16.42068,33.170982 6.38802,19.996388 6.51626,41.807578 0.34678,58.980848 -3.31693,9.23295 -7.72582,17.31409 -10.67232,19.5615 l -2.69471,2.05536 z"
   id="path1545" /><path
   style="fill:#ececec;stroke-width:0.785276"
   d="m 283.8773,110.40109 c 0,-2.00483 -0.58531,-3.17116 -2.32681,-4.63654 -1.27975,-1.07684 -2.65281,-2.08003 -3.05125,-2.22932 -0.39843,-0.14928 -0.97631,-3.50529 -1.28416,-7.457798 -0.53588,-6.88 -0.4886,-7.20895 1.10897,-7.715999 4.92564,-1.563338 5.04905,-7.313334 0.46106,-21.482656 l -2.88191,-8.900364 2.12637,-3.271415 c 3.80405,-5.852513 19.90675,-21.071052 27.83546,-26.307077 8.93669,-5.901684 8.45061,-6.430309 8.54537,9.293331 0.14101,23.39603 -5.14609,43.088585 -15.84646,59.0225 -4.59384,6.840688 -12.72049,16.363998 -13.96409,16.363998 -0.3974,0 -0.72255,-1.20539 -0.72255,-2.67866 z"
   id="path1584" /><path
   style="fill:#ececec;stroke-width:0.785276"
   d="m 404.80982,471.95366 c -31.6208,-4.88186 -63.13093,-13.65929 -94.13812,-26.22301 -16.33605,-6.61917 -23.46342,-9.91598 -44.73409,-20.692 -21.55625,-10.92071 -25.39037,-13.33158 -28.06913,-17.64976 -2.71329,-4.37381 -4.73481,-6.60273 -8.48937,-9.36035 -2.71007,-1.99047 -3.72235,-2.2494 -8.794,-2.2494 h -5.73139 l -8.08944,-6.4216 c -26.41263,-20.96701 -44.58733,-48.65549 -52.3921,-79.8174 -2.60629,-10.40606 -3.29254,-17.33458 -3.28846,-33.20098 0.003,-12.46848 0.31312,-16.90793 1.63212,-23.38036 2.3048,-11.30986 5.13187,-19.76436 8.08107,-24.16681 3.11155,-4.64483 9.12764,-9.20604 61.26739,-46.45103 66.66375,-47.61992 72.28017,-51.11273 90.08294,-56.02199 8.51997,-2.34946 35.00608,-2.99249 45.12488,-1.09556 10.98513,2.05934 21.06256,5.55762 33.01009,11.45913 35.5703,17.57005 60.4373,48.33849 71.51498,88.48694 7.21542,26.1506 11.89142,57.81363 14.46849,97.97162 0.47118,7.34234 1.02185,13.90436 1.22371,14.58228 0.20187,0.67792 1.60025,1.82067 3.10753,2.53944 l 2.7405,1.30686 -0.012,5.70596 c -0.0131,6.23575 -0.27362,6.96384 -3.00663,8.40402 -2.87803,1.51661 -4.61431,6.64899 -5.99434,17.71911 -3.43986,27.59333 -8.77017,52.31438 -15.44982,71.65374 -6.73448,19.49809 -9.85411,24.97598 -15.27356,26.81949 -5.30577,1.80484 -27.32954,1.85121 -38.79124,0.0817 z m 14.26945,-7.58457 c 1.90116,-1.72053 2.01214,-10.99137 0.17785,-14.85684 -1.86692,-3.93425 -7.15707,-9.61209 -10.58528,-11.36103 -3.71749,-1.89652 -9.10338,-2.01243 -11.064,-0.2381 -1.99072,1.80158 -1.9393,9.68774 0.0924,14.16271 1.87472,4.1293 7.33669,10.11417 10.99661,12.04937 3.50664,1.85417 8.47419,1.97085 10.38246,0.24389 z M 340.79995,422.346 c 2.05597,-1.61723 2.14641,-1.96363 1.79412,-6.87117 -0.41996,-5.84994 -2.39239,-10.33852 -6.57985,-14.97353 -7.63905,-8.45553 -18.37005,-8.23559 -18.37005,0.37649 0,7.75432 4.31684,15.436 11.57408,20.59571 4.38506,3.11765 8.34791,3.41619 11.5817,0.8725 z m 110.81256,-44.44391 c 4.96882,-3.31778 2.74717,-14.72236 -4.37267,-22.44646 -3.87581,-4.20476 -7.39513,-6.00778 -11.72662,-6.00778 -4.91959,0 -6.62214,2.12469 -6.21481,7.75582 0.5289,7.31191 5.82567,16.05471 12.02674,19.85121 2.36922,1.45051 8.61365,1.96477 10.28736,0.84721 z M 196.06087,345.00712 c 1.07235,-0.97046 1.43606,-2.43711 1.43606,-5.79083 0,-7.9785 -3.91676,-15.4708 -10.34444,-19.78768 -3.87272,-2.60094 -10.17242,-3.04094 -12.56305,-0.87745 -1.69213,1.53135 -1.97004,7.88598 -0.53045,12.12921 1.60323,4.72557 6.33668,11.06017 10.00105,13.38405 4.14461,2.62843 9.65943,3.06165 12.00083,0.9427 z M 310.9248,314.72097 c 3.00229,-4.28636 0.5804,-14.23002 -4.97137,-20.41112 -6.27795,-6.9896 -13.95114,-9.08066 -17.39102,-4.7393 -3.5261,4.4502 -0.45008,15.20996 6.19367,21.66513 3.94342,3.83149 6.93561,5.22006 11.26074,5.22574 2.92161,0.004 3.93892,-0.35692 4.90798,-1.74045 z m 90.24537,-21.86999 c 1.83977,-1.44716 2.06909,-2.16987 2.06909,-6.52067 0,-3.65729 -0.50044,-5.89738 -1.98149,-8.86945 -2.33123,-4.67818 -7.57851,-10.20326 -11.14666,-11.73679 -3.42142,-1.47047 -8.02968,-1.36982 -9.77934,0.21359 -2.09301,1.89415 -1.99991,10.86766 0.16045,15.46362 3.02422,6.43376 11.43226,13.07508 16.55525,13.07663 1.12949,3.4e-4 2.9847,-0.73178 4.1227,-1.62693 z M 229.18036,261.89765 c 2.77707,-2.77708 2.20033,-9.71094 -1.39352,-16.75377 -4.76746,-9.34268 -15.85635,-14.36125 -20.02432,-9.06252 -4.78921,6.08848 1.30155,20.96594 10.54423,25.75563 3.03278,1.57163 9.32752,1.60674 10.87361,0.0606 z m 100.12508,-56.99498 c 5.3236,-5.71422 -0.69148,-21.06459 -10.14381,-25.88681 -3.68209,-1.87846 -9.54737,-2.03941 -11.27732,-0.30946 -1.85392,1.85392 -1.66437,10.73347 0.3162,14.81254 1.94721,4.01038 7.57213,9.92367 11.08622,11.65458 3.773,1.85845 8.14509,1.74025 10.01871,-0.27085 z m 96.20829,-12.56703 c 1.83977,-1.44716 2.06909,-2.16987 2.06909,-6.52066 0,-5.91808 -2.31915,-11.12101 -7.1171,-15.96691 -10.2889,-10.39176 -21.07989,-5.91501 -16.85771,6.99358 3.97567,12.15492 15.65169,20.41341 21.90572,15.49399 z"
   id="path1623" /><path
   style="fill:#999999;stroke-width:0.785276"
   d="M 151.16564,199.72268 C 132.51,196.78791 115.76432,187.93693 99.427306,172.37622 c -7.48158,-7.12607 -19.033867,-20.89745 -21.730425,-25.90465 -1.360188,-2.52572 -1.372268,-2.87317 -0.186351,-5.36006 1.115012,-2.33821 2.106255,-2.95493 8.210082,-5.10809 3.818081,-1.34685 8.684398,-2.93341 10.814039,-3.52569 l 3.872079,-1.07687 3.66329,4.38546 c 6.2435,7.47431 18.92049,19.07336 26.53472,24.27844 19.31952,13.2068 40.19491,18.92471 61.12612,16.74289 5.01804,-0.52307 9.24991,-0.82483 9.40416,-0.67058 0.15425,0.15425 -7.22622,5.64173 -16.40105,12.19439 l -16.68152,11.91394 -7.4618,-0.10694 c -4.104,-0.0588 -8.34525,-0.24592 -9.42501,-0.41578 z"
   id="path1797" /><path
   style="fill:#999999;stroke-width:0.785276"
   d="m 229.69325,155.20261 c 0,-0.15512 1.19979,-2.89377 2.6662,-6.08588 6.4636,-14.07017 8.79318,-26.11581 8.09846,-41.87522 -0.83914,-19.035945 -7.91157,-39.7436 -20.16279,-59.035509 -0.95544,-1.504529 -0.66837,-2.216217 3.08252,-7.642066 5.99545,-8.672731 10.30967,-13.079272 12.80523,-13.079272 2.88625,0 5.2438,2.379456 11.05753,11.160283 8.947,13.513188 15.41979,27.695459 19.01169,41.655766 1.45713,5.663284 3.48466,8.215952 7.05823,8.886358 2.18068,0.409097 2.59741,0.873304 3.00687,3.349445 0.26144,1.580991 0.47923,4.729743 0.48398,6.997227 0.008,3.895928 -0.10131,4.122698 -1.99024,4.122698 -2.75027,0 -5.64876,3.14368 -6.25435,6.78343 -0.84521,5.07989 -3.47322,15.40142 -4.81994,18.93036 -1.14605,3.00309 -2.85256,4.46218 -17.22072,14.72392 -14.71424,10.50893 -16.82267,11.90118 -16.82267,11.10846 z"
   id="path1836" /><path
   style="fill:#999999;stroke-width:0.785276"
   d="m 283.5061,116.90854 c 0.29637,-1.34939 1.75277,-3.51925 3.23644,-4.82193 4.94404,-4.34092 12.8483,-15.018093 16.70487,-22.565138 8.60668,-16.842655 11.26053,-28.770238 11.42547,-51.351056 l 0.1141,-15.620995 6.62921,-3.382511 c 11.03347,-5.629755 13.8989,-4.486842 15.93172,6.354562 0.64788,3.455215 1.43543,8.924977 1.75013,12.155026 0.48253,4.952613 0.91318,6.213813 2.74844,8.04908 1.19695,1.196945 2.9102,2.176262 3.80722,2.176262 1.53062,0 1.63096,0.436023 1.63096,7.087117 v 7.087117 l -2.30082,0.460164 c -3.95298,0.790596 -5.39219,3.20914 -7.20367,12.105518 -1.85779,9.123834 -4.42483,16.825917 -7.96913,23.910391 -3.61208,7.219953 -5.1149,9.028973 -7.51237,9.042983 -6.37188,0.0372 -26.80796,5.80698 -34.65875,9.78528 -2.15072,1.08986 -4.12692,1.98155 -4.39155,1.98155 -0.26462,0 -0.23865,-1.10404 0.0577,-2.45342 z"
   id="path1875" /><path
   style="fill:#999999;stroke-width:0.785276"
   d="M 381.64417,494.96115 C 349.14885,490.6475 308.80046,479.17891 274.53369,464.5162 235.50489,447.81581 192.1529,422.81647 174.31931,406.72661 c -16.05243,-14.48285 -27.97644,-31.5362 -36.98985,-52.90172 -2.85381,-6.76472 -5.94855,-10.65237 -8.49478,-10.67127 -2.76289,-0.0205 -3.43895,-1.00716 -4.80475,-7.0121 -1.27476,-5.60469 -1.26946,-5.85443 0.1457,-6.87101 4.43168,-3.18351 4.21666,-2.24177 4.22164,-18.48982 0.003,-9.1823 0.44975,-18.05515 1.13761,-22.58437 2.01478,-13.26634 6.71683,-26.94742 12.9005,-37.53534 3.7888,-6.48732 12.60106,-18.5366 13.15307,-17.9846 0.21379,0.2138 -0.48577,3.34048 -1.55458,6.94819 -3.95608,13.35348 -5.22967,22.50588 -5.20967,37.43839 0.0443,33.07856 10.91448,63.57348 31.96466,89.67295 6.3293,7.84749 20.33242,21.23814 28.31864,27.08004 l 6.44112,4.71166 0.0221,4.71165 c 0.0137,2.91196 0.59271,5.96854 1.51601,8.00221 3.11346,6.85775 11.44588,13.59289 16.81656,13.59289 3.45264,0 5.99858,-3.1709 5.99858,-7.47107 v -3.61608 l 8.04908,4.39538 c 31.05144,16.95633 59.10799,29.36072 88.93252,39.31895 39.50226,13.18956 79.25995,19.93035 102.47852,17.37492 l 5.88957,-0.64821 -2.74846,2.88415 c -6.42583,6.74303 -20.43169,14.7373 -30.2018,17.23857 -4.40875,1.1287 -23.93307,1.54278 -30.6571,0.65018 z"
   id="path1914" /><path
   style="fill:#cccccc;stroke-width:0.785276"
   d="M 408.34356,472.20732 C 378.11031,468.44002 336.76954,456.59923 300.3681,441.28108 288.776,436.403 249.39061,416.6121 244.28689,413.10065 c -1.95398,-1.34438 -4.51311,-3.75978 -5.68697,-5.36757 -3.29933,-4.51897 -8.29142,-9.60703 -10.63454,-10.83901 -1.22603,-0.64463 -4.37289,-1.11622 -7.46013,-1.11798 l -5.33961,-0.003 -7.46012,-5.93708 c -28.37978,-22.58582 -47.18478,-52.22051 -54.28124,-85.54148 -1.93471,-9.08429 -2.82683,-33.93274 -1.57882,-43.97546 1.846,-14.85483 6.55837,-29.01525 11.33644,-34.0654 3.30605,-3.49432 19.39285,-15.44261 56.30276,-41.8183 78.94377,-56.41291 81.45144,-57.7821 109.33298,-59.69598 25.07521,-1.72125 42.80423,2.10519 64.99831,14.02852 36.10402,19.39617 59.26973,50.76678 69.82206,94.55185 5.62017,23.31991 10.12144,55.15958 12.19875,86.28765 1.09353,16.38634 1.36215,18.13404 3.02538,19.68358 0.88608,0.8255 2.29233,1.71714 3.12501,1.98143 1.35468,0.42996 1.48271,1.09942 1.21692,6.36292 -0.27768,5.49881 -0.4609,6.01855 -2.80968,7.97019 -3.4355,2.85459 -4.60485,6.13406 -6.08639,17.06935 -3.90843,28.84824 -8.57188,50.61228 -15.04643,70.22088 -7.00672,21.22023 -10.78966,27.59815 -17.25979,29.0994 -2.88555,0.66953 -28.68287,0.83218 -33.65822,0.21221 z m 10.73571,-7.83823 c 1.7801,-1.61096 2.01186,-10.73365 0.37161,-14.62744 -1.48811,-3.53261 -7.80575,-10.33091 -11.01629,-11.85441 -3.50945,-1.66534 -8.97239,-1.65229 -10.82675,0.0259 -2.24158,2.02861 -1.9747,9.87553 0.50514,14.85191 2.12337,4.26106 7.31238,9.76098 11.01585,11.6759 3.10905,1.60757 8.13481,1.57129 9.95044,-0.0719 z M 340.79995,422.346 c 2.05597,-1.61723 2.14641,-1.96363 1.79412,-6.87117 -0.43012,-5.99133 -2.58213,-10.83401 -6.77548,-15.24689 -5.599,-5.8921 -12.68621,-7.76038 -16.35694,-4.31192 -3.58608,3.36895 -1.97082,12.49993 3.47429,19.64002 5.84863,7.66923 13.19592,10.46187 17.86401,6.78996 z m 111.91171,-45.41348 c 3.74455,-3.74456 1.02153,-14.43244 -5.47182,-21.47689 -3.87581,-4.20476 -7.39513,-6.00778 -11.72662,-6.00778 -4.91959,0 -6.62214,2.12469 -6.21481,7.75582 0.5289,7.31191 5.82567,16.05471 12.02674,19.85121 3.27967,2.00792 9.32114,1.943 11.38651,-0.12236 z m -256.65079,-31.9254 c 1.07235,-0.97046 1.43606,-2.43711 1.43606,-5.79083 0,-11.6554 -8.23499,-21.96476 -17.54519,-21.96476 -5.33526,0 -6.79837,1.42158 -6.79837,6.60542 0,5.49995 1.06411,8.7438 4.50917,13.74588 3.79377,5.50839 8.73094,8.70392 13.44777,8.70392 2.16827,0 4.06457,-0.49782 4.95056,-1.29963 z M 310.9248,314.72097 c 1.8921,-2.70135 1.53768,-8.92793 -0.79463,-13.96023 -3.63061,-7.83361 -10.5481,-13.3497 -16.74128,-13.3497 -8.88438,0 -8.40973,13.17718 0.83703,23.23697 4.02511,4.37904 6.80997,5.74597 11.7909,5.78751 2.93908,0.0245 3.93312,-0.32275 4.90798,-1.71455 z m 90.24537,-21.86999 c 1.83831,-1.44601 2.06824,-2.16863 2.06142,-6.47853 -0.01,-6.22091 -2.40837,-11.42197 -7.55803,-16.38912 -4.23396,-4.0839 -6.84721,-5.34529 -11.07389,-5.34529 -4.54431,0 -5.70684,1.67034 -5.68672,8.17079 0.0219,7.06359 1.6276,10.67528 6.94769,15.62697 6.49504,6.0453 11.42843,7.46806 15.30953,4.41518 z M 229.24334,261.83466 c 1.88137,-1.88136 2.24572,-4.50068 1.2759,-9.17226 -2.18274,-10.51423 -10.04105,-18.65013 -18.01378,-18.65013 -10.41191,0 -7.65282,18.28513 4.03683,26.75308 2.5592,1.85387 3.98514,2.30213 7.32312,2.30213 2.71956,0 4.56909,-0.42397 5.37793,-1.23282 z m 100.0621,-56.93199 c 4.52181,-4.8536 1.51657,-16.07861 -6.16193,-23.01567 -3.87666,-3.50232 -6.06688,-4.41461 -10.59866,-4.41461 -4.86725,0 -5.89454,1.33514 -5.89454,7.66092 0,6.3125 1.79451,10.44131 6.75767,15.54802 5.64279,5.80601 12.68018,7.67468 15.89746,4.22134 z m 96.20829,-12.56703 c 1.83831,-1.44601 2.06824,-2.16863 2.06142,-6.47852 -0.0101,-6.35468 -2.44295,-11.5453 -7.70794,-16.445 -5.4593,-5.08053 -10.30644,-6.62651 -14.21604,-4.53416 -5.47418,2.9297 -3.08389,15.12208 4.52174,23.06447 5.56912,5.8157 11.40704,7.48752 15.34082,4.39321 z"
   id="path206" /><path
   style="fill:#cccccc;stroke-width:0.785276"
   d="m 404.80982,471.42494 c -20.86532,-3.31702 -42.70197,-8.7884 -66.74847,-16.72445 -26.98816,-8.9069 -36.71891,-12.98216 -66.26029,-27.74995 -27.47994,-13.73727 -28.83414,-14.60763 -36.28125,-23.31864 -1.29233,-1.51165 -3.67434,-3.89693 -5.29336,-5.30061 -2.7473,-2.38189 -3.32952,-2.55215 -8.72743,-2.55215 h -5.78375 l -6.55702,-5.28922 c -29.30352,-23.63768 -48.02777,-52.71747 -55.24775,-85.8028 -2.01975,-9.25541 -2.54254,-40.65912 -0.83013,-49.86503 2.79001,-14.99913 6.6474,-24.53236 11.9551,-29.54608 4.51125,-4.26137 21.13714,-16.53568 59.94613,-44.25613 55.28506,-39.48896 72.33041,-50.18205 85.12223,-53.3999 7.94886,-1.99958 21.19213,-2.99041 33.73094,-2.52366 17.47505,0.65049 27.92674,3.30357 44.09161,11.19228 37.54963,18.32481 61.76587,48.31713 73.78655,91.38619 5.69844,20.417 10.69749,53.05729 13.3584,87.22092 1.65748,21.28055 1.88803,22.74854 3.88651,24.74701 0.94619,0.9462 2.10963,1.8609 2.58539,2.03268 1.04901,0.37875 1.22255,1.44786 1.10196,6.7886 -0.0783,3.4679 -0.50237,4.58714 -2.67773,7.06748 -3.75423,4.28053 -4.30438,6.02117 -6.47569,20.48832 -5.64468,37.60987 -13.66483,69.07696 -21.74837,85.32989 -5.17347,10.40192 -5.76188,10.62679 -27.459,10.49429 -9.63127,-0.0588 -18.39483,-0.24738 -19.47458,-0.41904 z m 14.47151,-6.99023 c 1.43839,-1.43839 1.74285,-11.46038 0.45135,-14.85728 -0.98756,-2.59747 -8.31835,-10.40111 -11.1431,-11.86184 -2.30334,-1.1911 -9.04702,-1.47304 -10.66528,-0.4459 -2.42467,1.53899 -2.67212,8.66242 -0.50911,14.65669 1.11089,3.07862 6.27259,9.17276 9.68876,11.43901 4.02798,2.67211 10.04613,3.20058 12.17738,1.06932 z m -78.44389,-41.65386 c 1.69197,-1.10862 1.93557,-1.84612 1.93557,-5.86011 0,-11.67197 -8.98316,-22.71215 -18.48039,-22.71215 -3.91569,0 -5.67092,1.14164 -6.52807,4.24599 -2.0247,7.33285 4.41176,19.8258 12.38645,24.04166 3.47586,1.83753 8.12733,1.96141 10.68644,0.28461 z m 111.93879,-45.74272 c 3.46015,-2.80186 1.80783,-12.06376 -3.49098,-19.56823 -3.60068,-5.09949 -8.508,-8.02205 -13.46995,-8.02205 -5.77449,0 -7.00619,1.53106 -6.48229,8.05777 0.58858,7.33252 5.02418,15.21444 10.75254,19.10697 3.55646,2.41668 9.96631,2.63161 12.69068,0.42554 z m -256.5133,-31.96539 c 1.64343,-1.64343 1.64182,-9.85375 -0.003,-14.6807 -1.48837,-4.36814 -6.35104,-10.10742 -10.05133,-11.86332 -3.59435,-1.70563 -10.1787,-1.68581 -11.90034,0.0358 -1.74426,1.74426 -1.2982,11.19182 0.72496,15.35477 1.96877,4.05102 6.96396,9.55047 10.06134,11.07701 3.37033,1.66106 9.54138,1.70329 11.16826,0.0764 z m 114.44824,-29.90611 c 2.2737,-2.05766 1.97405,-9.87685 -0.57451,-14.99113 -2.44491,-4.90629 -7.38846,-10.15052 -10.9852,-11.65333 -3.91347,-1.63516 -8.67503,-1.42805 -10.5625,0.45943 -1.9831,1.98309 -2.13964,8.64761 -0.30672,13.05747 1.99308,4.79516 6.4156,10.30752 9.98719,12.44834 3.96363,2.3758 10.19136,2.71579 12.44174,0.67922 z m 90.80947,-22.28925 c 1.42792,-1.3303 1.70852,-2.42615 1.65888,-6.47853 -0.0701,-5.71904 -1.0137,-8.62032 -4.3274,-13.30472 -3.57406,-5.05246 -9.10963,-8.45609 -13.75275,-8.45609 -5.33322,0 -6.20366,1.16833 -6.20366,8.32671 0,3.3492 0.48913,7.02935 1.14192,8.59172 1.32471,3.17048 8.00857,9.84758 11.65979,11.64803 3.55077,1.75089 7.74256,1.61131 9.82322,-0.32712 z M 230.04136,261.3222 c 3.8368,-5.4778 -1.79692,-20.06562 -9.67988,-25.06485 -4.71972,-2.99316 -9.98452,-3.1255 -12.62268,-0.31731 -3.82699,4.07364 -1.71926,14.08573 4.39358,20.87034 4.45606,4.94576 7.00498,6.25075 12.21573,6.25417 3.73171,0.002 4.6729,-0.28559 5.69325,-1.74235 z m 99.58823,-56.54731 c 2.0832,-2.3884 2.50129,-5.18354 1.4938,-9.98681 -1.15244,-5.49429 -5.45812,-11.82438 -10.16224,-14.94026 -2.95556,-1.95769 -4.3863,-2.37543 -8.13564,-2.37543 -5.52741,0 -6.1786,0.8444 -6.16753,7.99746 0.0117,7.57368 3.12552,13.15903 10.38979,18.63655 2.27088,1.71232 7.14812,3.12663 9.23444,2.67781 1.07975,-0.23228 2.58608,-1.13648 3.34738,-2.00932 z m 96.23461,-12.41284 c 1.38717,-1.29235 1.71862,-2.48132 1.71862,-6.16503 0,-5.49529 -1.05049,-8.8605 -4.07171,-13.04365 -4.93141,-6.82793 -12.14489,-10.65108 -16.94148,-8.97898 -8.10439,2.82521 -3.35396,20.23221 7.47978,27.40818 4.40587,2.91832 9.18086,3.23335 11.81479,0.77948 z"
   id="path282" /></svg>
