<?xml version="1.0" encoding="UTF-8" standalone="no"?>
<!-- Generator: Adobe Illustrator 19.0.0, SVG Export Plug-In . SVG Version: 6.00 Build 0)  -->

<svg
   version="1.1"
   id="Layer_1"
   x="0px"
   y="0px"
   viewBox="0 0 512 512"
   style="enable-background:new 0 0 512 512;"
   xml:space="preserve"
   sodipodi:docname="tree.svg"
   inkscape:version="1.1 (c68e22c387, 2021-05-23)"
   xmlns:inkscape="http://www.inkscape.org/namespaces/inkscape"
   xmlns:sodipodi="http://sodipodi.sourceforge.net/DTD/sodipodi-0.dtd"
   xmlns="http://www.w3.org/2000/svg"
   xmlns:svg="http://www.w3.org/2000/svg"><defs
   id="defs2111" /><sodipodi:namedview
   id="namedview2109"
   pagecolor="#505050"
   bordercolor="#eeeeee"
   borderopacity="1"
   inkscape:pageshadow="0"
   inkscape:pageopacity="0"
   inkscape:pagecheckerboard="0"
   showgrid="false"
   inkscape:zoom="1.2734375"
   inkscape:cx="255.60736"
   inkscape:cy="256"
   inkscape:window-width="1600"
   inkscape:window-height="838"
   inkscape:window-x="-8"
   inkscape:window-y="-8"
   inkscape:window-maximized="1"
   inkscape:current-layer="Layer_1" />
<path
   style="fill:#129B12;"
   d="M478.747,240.972c0-34.779-21.15-64.618-51.289-77.357c5.322-10.289,8.347-21.959,8.347-34.342  c0-41.349-33.52-74.87-74.87-74.87c-11.781,0-22.921,2.729-32.837,7.577c-8.811-31.544-37.741-54.693-72.097-54.693  s-63.286,23.149-72.097,54.694c-9.915-4.848-21.056-7.577-32.837-7.577c-41.349,0-74.87,33.52-74.87,74.87  c0,12.383,3.025,24.053,8.347,34.342c-30.139,12.739-51.289,42.578-51.289,77.357c0,45.073,35.535,81.799,80.112,83.81  c6.215,22.511,30.215,39.292,58.896,39.292c16.256,0,31.001-5.399,41.869-14.166c10.867,8.767,25.613,14.166,41.869,14.166  s31.001-5.399,41.869-14.166c10.867,8.767,25.613,14.166,41.869,14.166c28.682,0,52.682-16.782,58.896-39.292  C443.212,322.771,478.747,286.045,478.747,240.972z"
   id="path2060" />
<g
   id="g2066">
	<path
   style="fill:#097C09;"
   d="M251.511,7.435c-0.922,0.055-1.84,0.122-2.752,0.211c-0.279,0.027-0.557,0.058-0.836,0.088   c-0.98,0.106-1.955,0.228-2.924,0.372c-0.181,0.027-0.363,0.053-0.544,0.081c-1.153,0.18-2.298,0.38-3.433,0.611   c-0.002,0-0.004,0.001-0.006,0.001c19.654,3.997,38.056,17.686,49.714,34.941c8.256,12.219,22.362,19.262,37.074,18.262   c0.098-0.007,0.196-0.013,0.294-0.02c-8.81-31.546-37.74-54.695-72.096-54.695c-1.204,0-2.4,0.035-3.591,0.092   C252.11,7.393,251.811,7.417,251.511,7.435z"
   id="path2062" />
	<path
   style="fill:#097C09;"
   d="M427.457,163.615c5.323-10.289,8.347-21.959,8.347-34.342c0-41.349-33.52-74.87-74.87-74.87   c-5.131,0-10.141,0.519-14.981,1.504c34.165,6.944,59.879,37.151,59.879,73.366c0,12.383-3.025,24.053-8.347,34.342   c30.139,12.739,51.289,42.578,51.289,77.357c0,45.073-35.535,81.799-80.111,83.809c-5.094,18.45-22.139,33.044-43.913,37.712   c4.793,1.029,9.813,1.581,14.988,1.581c28.681,0,52.682-16.782,58.896-39.292c44.577-2.01,80.111-38.736,80.111-83.809   C478.747,206.193,457.598,176.355,427.457,163.615z"
   id="path2064" />
</g>
<path
   style="fill:#009000;"
   d="M202.392,337.507c-6.752,11.452-34.735,24.258-45.112,24.986c1.142,0.245,2.299,0.459,3.465,0.649  c0.094,0.015,0.187,0.032,0.281,0.047c1.183,0.188,2.377,0.349,3.583,0.478c0.031,0.003,0.062,0.005,0.093,0.009  c1.085,0.115,2.182,0.197,3.285,0.263c0.269,0.016,0.537,0.031,0.807,0.044c1.149,0.055,2.304,0.092,3.47,0.092l0,0  c14.826,0,28.385-4.501,38.902-11.942l1.844-1.341l-9.391-15.408L202.392,337.507z"
   id="path2068" />
<path
   style="fill:#BF6101;"
   d="M293.438,356.625l32.077-50.616c2.537-4.004,1.77-9.26-1.807-12.371l0,0  c-3.819-3.322-9.562-3.105-13.119,0.496l-23.623,23.916c-3.133,3.172-8.501,0.534-7.904-3.884l6.947-51.468  c0.742-5.499-3.323-10.479-8.859-10.853l-6.508-0.44c-4.891-0.33-9.244,3.08-10.093,7.907l-12.399,70.449  c-0.69,3.918-5.665,5.211-8.175,2.124l-38.834-47.759c-2.687-3.305-7.232-4.442-11.158-2.791l-6.799,2.858  c-5.383,2.263-7.513,8.77-4.509,13.777l39.907,66.518c5.779,9.633,8.162,20.934,6.717,32.074  c-5.172,39.888-11.596,77.507-37.887,108.151h137.185l0,0c-28.144-32.805-35.086-73.601-38.811-116.618  C284.827,377.049,287.503,365.99,293.438,356.625z"
   id="path2070" />
<path
   style="fill:#9A4D01;"
   d="M325.513,306.009c2.537-4.004,1.77-9.26-1.807-12.371l0,0c-3.819-3.322-9.562-3.105-13.119,0.496  l-10.55,10.68l0,0l-13.073,13.236c-3.133,3.172-8.5,0.534-7.904-3.884l6.947-51.468c0.724-5.36-3.125-10.214-8.447-10.803  l-19.533,121.408c-0.328,1.568-0.585,3.151-0.763,4.745l0,0l0,0c-0.372,3.318-0.422,6.683-0.131,10.046  c3.725,43.018,10.667,83.814,38.811,116.618l0,0h28.649l0,0c-28.144-32.805-35.086-73.601-38.811-116.618  c-0.956-11.046,1.719-22.105,7.654-31.47L325.513,306.009z"
   id="path2072" />
<path
   style="fill:#28A528;"
   d="M241.753,66.065c-21.005,0-39.087,12.467-47.284,30.399c-8.468-5.984-18.796-9.511-29.953-9.511  c-28.706,0-51.977,23.271-51.977,51.977c0,9.472,2.546,18.343,6.972,25.991c-24.926,3.832-44.014,25.371-44.014,51.37  c0,28.706,23.271,51.977,51.977,51.977s166.256-121.52,166.256-150.226S270.458,66.065,241.753,66.065z"
   id="path2074" />
<path
   style="fill:#121419;"
   d="M437.094,160.109c3.984-9.778,5.998-20.118,5.998-30.835c0-2.173-0.086-4.369-0.256-6.524  c-0.316-4.012-3.827-7.005-7.836-6.692c-4.011,0.316-7.008,3.824-6.692,7.836c0.139,1.777,0.211,3.587,0.211,5.38  c0,10.904-2.534,21.332-7.532,30.994c-0.934,1.803-1.071,3.914-0.381,5.824s2.146,3.445,4.016,4.235  c28.454,12.027,46.84,39.757,46.84,70.645c0,41.064-32.133,74.68-73.154,76.53c-3.153,0.142-5.856,2.298-6.695,5.34  c-5.43,19.669-27.246,33.945-51.872,33.945c-11.734,0-22.926-3.123-32.145-8.889l24.074-37.99c1.687-2.662,2.553-5.613,2.643-8.553  c0.149-4.9-1.859-9.768-5.821-13.215c-6.703-5.832-16.843-5.447-23.086,0.873l-18.065,18.289l5.89-43.63  c0.622-4.613-0.709-9.326-3.652-12.931c-2.575-3.155-6.228-5.269-10.212-5.959c-0.569-0.098-1.145-0.168-1.725-0.207l-6.508-0.44  c-3.238-0.22-6.335,0.485-9.019,1.9c-4.474,2.358-7.805,6.692-8.742,12.014l-5.698,32.375l-5.698,32.374l-35.182-43.267  c-1.167-1.435-2.543-2.638-4.056-3.591c-0.009-0.006-0.018-0.013-0.027-0.019c-0.163-0.102-0.334-0.19-0.5-0.287  c-2.165-1.257-4.579-2.032-7.062-2.252c-0.079-0.007-0.16-0.006-0.239-0.012c-0.366-0.027-0.732-0.05-1.1-0.054  c-2.242-0.022-4.506,0.401-6.65,1.303l-6.799,2.858c-4.515,1.897-7.978,5.655-9.502,10.309c-1.524,4.655-0.953,9.733,1.567,13.934  l28.798,48c-8.59,4.588-18.647,7.068-28.958,7.068c-24.627,0-46.442-14.276-51.872-33.944c-0.84-3.043-3.543-5.198-6.695-5.34  c-41.021-1.85-73.154-35.466-73.154-76.531c0-30.889,18.386-58.619,46.84-70.645c1.87-0.79,3.326-2.325,4.016-4.235  s0.552-4.021-0.381-5.824c-4.998-9.662-7.532-20.09-7.532-30.994c0-37.265,30.318-67.583,67.583-67.583  c10.387,0,20.359,2.3,29.637,6.836c1.943,0.951,4.209,0.988,6.184,0.102c1.973-0.886,3.452-2.603,4.034-4.687  c8.118-29.067,34.88-49.368,65.079-49.368s56.961,20.301,65.079,49.368c0.583,2.084,2.061,3.802,4.034,4.687  c1.974,0.887,4.241,0.85,6.184-0.102c9.278-4.536,19.25-6.836,29.637-6.836c24.911,0,47.73,13.639,59.551,35.596  c1.907,3.543,6.327,4.869,9.87,2.961c3.544-1.907,4.869-6.327,2.961-9.87c-14.367-26.684-42.102-43.26-72.382-43.26  c-9.839,0-19.373,1.699-28.444,5.061C320.293,21.083,289.932,0,256.001,0s-64.292,21.083-76.49,52.179  c-9.071-3.362-18.605-5.061-28.444-5.061c-45.302,0-82.157,36.855-82.157,82.156c0,10.717,2.014,21.058,5.998,30.835  c-29.962,15.653-48.94,46.627-48.94,80.863c0,47.179,35.631,86.097,82.019,90.723c9.12,23.595,34.75,39.665,64.275,39.665  c12.944,0,25.62-3.214,36.457-9.142l3.611,6.018c4.926,8.212,6.965,17.938,5.74,27.389c-1.06,8.171-2.365,17.793-4.02,27.211  c-0.696,3.964,1.953,7.741,5.916,8.437c3.969,0.697,7.741-1.953,8.437-5.916c1.705-9.703,3.039-19.527,4.119-27.86  c1.645-12.691-1.087-25.746-7.695-36.759l-39.907-66.517c-0.472-0.786-0.337-1.53-0.214-1.904c0.122-0.374,0.454-1.053,1.298-1.408  l6.8-2.858c0.936-0.394,2.04-0.118,2.681,0.671l38.835,47.76c0.103,0.126,0.212,0.244,0.319,0.365  c1.443,1.64,3.238,2.819,5.211,3.466c2.096,0.688,4.386,0.778,6.651,0.205c0.025-0.006,0.05-0.01,0.076-0.017c0,0,0,0,0.001,0h0.001  c2.201-0.572,4.115-1.714,5.604-3.259c0.058-0.061,0.121-0.118,0.178-0.179c0.052-0.057,0.1-0.118,0.151-0.176  c1.428-1.611,2.418-3.615,2.813-5.862l12.399-70.449c0.205-1.164,1.274-1.977,2.426-1.901l6.509,0.44  c0.867,0.059,1.394,0.553,1.63,0.843c0.236,0.289,0.615,0.903,0.498,1.766l-6.947,51.469c-0.086,0.637-0.12,1.271-0.104,1.898  c0.108,4.389,2.632,8.422,6.667,10.404c0.288,0.142,0.58,0.271,0.875,0.387c1.473,0.584,3.019,0.858,4.55,0.837  c3.062-0.042,6.067-1.263,8.323-3.548l23.622-23.916c0.408-0.413,0.939-0.636,1.481-0.673c0.024-0.002,0.047-0.008,0.071-0.009  c0.012,0,0.024,0.002,0.036,0.002c0.414-0.009,0.83,0.089,1.201,0.302c0.127,0.073,0.249,0.159,0.364,0.259  c0.865,0.753,1.047,2.004,0.434,2.973l-32.077,50.616c-6.737,10.632-9.848,23.417-8.758,35.999  c3.052,35.249,8.341,74.994,31.324,108.703H202.105c8.224-12.196,14.614-26.071,19.392-42.043c1.153-3.855-1.037-7.916-4.893-9.069  c-3.857-1.153-7.917,1.037-9.069,4.893c-5.828,19.482-14.22,35.433-25.657,48.761c-1.853,2.16-2.279,5.202-1.09,7.788  c1.189,2.586,3.774,4.243,6.62,4.243h137.185c2.846,0,5.432-1.657,6.62-4.243c1.189-2.586,0.763-5.628-1.09-7.787  c-28.059-32.706-33.853-75.221-37.082-112.503c-0.815-9.421,1.51-18.99,6.549-26.941l0.204-0.323  c11.543,7.234,25.447,11.158,39.944,11.158c29.525,0,55.155-16.07,64.275-39.666c46.388-4.626,82.019-43.544,82.019-90.722  C486.034,206.736,467.055,175.762,437.094,160.109z"
   id="path2076" />
<g
   id="g2078">
</g>
<g
   id="g2080">
</g>
<g
   id="g2082">
</g>
<g
   id="g2084">
</g>
<g
   id="g2086">
</g>
<g
   id="g2088">
</g>
<g
   id="g2090">
</g>
<g
   id="g2092">
</g>
<g
   id="g2094">
</g>
<g
   id="g2096">
</g>
<g
   id="g2098">
</g>
<g
   id="g2100">
</g>
<g
   id="g2102">
</g>
<g
   id="g2104">
</g>
<g
   id="g2106">
</g>
<path
   style="fill:#ececec;stroke-width:0.785276"
   d="m 114.42692,266.23127 c -14.09557,-3.785 -26.752833,-14.05297 -32.940137,-26.72207 -7.411031,-15.1748 -7.463733,-31.04652 -0.153241,-46.14998 2.567905,-5.30528 4.557244,-8.00858 9.638231,-13.09735 8.127813,-8.14024 13.728977,-11.16906 27.825097,-15.04636 0.75998,-0.20904 0.63556,-1.00161 -0.50961,-3.24634 -6.90257,-13.53015 -6.95654,-32.17194 -0.13227,-45.69074 10.63185,-21.061575 33.24235,-32.415651 55.81995,-28.030505 4.35784,0.846405 9.06609,2.502317 13.70447,4.819919 4.15128,2.074223 7.18332,3.17832 7.35055,2.676654 0.9095,-2.7285 8.67133,-13.028199 11.94853,-15.855312 5.35871,-4.622745 12.51033,-8.814251 18.67316,-10.944174 7.48355,-2.586376 23.85169,-2.618288 31.9189,-0.06223 19.72129,6.248597 34.25632,24.878966 35.5467,45.562218 0.39321,6.30268 0.31092,6.71269 -2.48129,12.36234 -5.90581,11.94959 -18.79519,27.49734 -42.03448,50.70388 -38.45749,38.40329 -82.78362,73.77369 -107.61497,85.87224 -7.55722,3.68209 -8.72198,4.01831 -14.5276,4.19345 -4.31666,0.13022 -8.11977,-0.29512 -12.03199,-1.34564 z"
   id="path2224" /><path
   style="fill:#999999;stroke-width:0.785276"
   d="m 162.81196,355.71188 c -18.03067,-3.04268 -33.35329,-13.55868 -39.59606,-27.17503 -1.55862,-3.39957 -3.19895,-6.95281 -3.64519,-7.8961 -1.05513,-2.23041 -3.40447,-3.04975 -11.88635,-4.14542 -28.931448,-3.73729 -52.797602,-22.98503 -62.369852,-50.30048 -3.372516,-9.62383 -4.370903,-17.05396 -3.873535,-28.82738 0.813165,-19.2488 7.388749,-34.78545 20.689669,-48.88513 6.377641,-6.76064 12.67933,-11.40036 21.438581,-15.7845 5.135992,-2.57064 6.702788,-3.77545 7.740945,-5.95249 1.224134,-2.56703 1.215675,-2.94834 -0.142112,-6.40613 -6.163552,-15.69636 -8.048156,-25.19577 -7.116896,-35.87296 2.399586,-27.512047 19.95356,-50.066663 45.81105,-58.861364 15.42915,-5.24779 31.26339,-4.569854 48.07561,2.058334 5.70737,2.250122 6.0851,2.299361 8.83259,1.151384 1.57864,-0.659595 3.20842,-2.012718 3.62175,-3.006939 0.41333,-0.994222 1.82736,-4.57241 3.14232,-7.951531 9.37165,-24.083064 32.42274,-40.934761 58.35155,-42.658389 l 6.4698,-0.430082 7.06748,4.71996 c 9.75146,6.512425 15.21399,11.623417 22.47334,21.027077 9.99455,12.946799 17.60934,18.624503 27.82224,20.744692 3.83516,0.796177 4.43386,1.193429 5.44469,3.612702 0.78643,1.882184 2.02771,3.090856 4.03598,3.929968 2.78564,1.163911 3.13593,1.118899 8.86262,-1.138842 8.29865,-3.271727 14.87543,-4.853879 22.37771,-5.383322 5.22693,-0.36887 6.92745,-0.19465 9.13829,0.936228 6.11081,3.125783 14.56033,9.668525 19.86056,15.378696 18.9178,20.380948 24.93773,48.951058 15.781,74.895248 -1.53045,4.33628 -2.96746,8.45393 -3.19335,9.15032 -0.30605,0.94351 1.05278,2.00968 5.33198,4.18362 7.83866,3.98223 15.03637,9.46571 21.95262,16.72429 37.51644,39.37341 27.94137,103.20992 -19.5394,130.26799 -3.31542,1.88938 -6.74335,3.43655 -7.61761,3.43817 -0.87425,0.002 -2.73142,0.69916 -4.12704,1.55009 -3.16652,1.93069 -13.02157,4.47899 -20.10818,5.19952 -3.90697,0.39724 -5.4774,0.88882 -5.76542,1.80468 -0.2177,0.6923 -1.64412,3.87057 -3.16981,7.06283 -3.419,7.15368 -12.0165,16.45448 -19.18809,20.75772 -4.9404,2.96444 -5.04101,2.98703 -11.09225,2.49039 -7.57965,-0.62209 -15.72757,-2.83602 -21.89472,-5.94919 -4.52611,-2.28477 -4.6678,-2.44681 -3.58781,-4.10283 11.64884,-17.86193 24.18469,-38.67097 24.90276,-41.33766 2.33705,-8.67914 -3.63422,-18.32053 -12.69243,-20.49356 -8.12534,-1.94924 -12.60296,0.37402 -24.82184,12.87906 -8.05258,8.24116 -8.8247,8.84065 -8.44178,6.55433 1.62286,-9.6895 5.29864,-39.37458 5.28303,-42.66507 -0.0342,-7.20165 -5.27283,-14.20635 -11.97423,-16.01084 -5.48984,-1.47827 -15.65129,-1.29439 -18.80132,0.34023 -3.76078,1.95154 -6.17325,4.26591 -7.84625,7.52718 -0.84542,1.64804 -3.7175,15.89723 -7.16381,35.5416 -3.16395,18.03487 -5.99078,32.69879 -6.28185,32.5865 -0.29107,-0.1123 -7.84569,-9.21522 -16.78805,-20.22871 -8.94236,-11.0135 -17.34922,-21.16864 -18.68192,-22.56698 -5.70624,-5.98729 -14.1641,-6.45066 -24.5142,-1.34302 -8.10717,4.00078 -10.77439,7.49715 -11.23477,14.72737 -0.21106,3.31458 0.0875,5.87924 0.91493,7.85957 0.67552,1.61674 6.73961,12.1177 13.47576,23.33546 6.73615,11.21775 12.04859,20.71784 11.80542,21.11128 -0.71775,1.16135 -10.66954,7.51399 -15.93509,10.17203 -5.17004,2.60983 -9.52935,3.01955 -17.61306,1.65543 z M 136.2454,266.35147 c 33.56511,-13.05184 123.31454,-91.39305 149.7049,-130.67563 5.75704,-8.56947 8.13559,-14.03995 8.13559,-18.71123 0,-5.42876 -2.32797,-15.03488 -5.03303,-20.768291 -6.26016,-13.268473 -15.82913,-22.030199 -29.88442,-27.363344 -5.91314,-2.243684 -7.00025,-2.396488 -17.30341,-2.432161 -10.01292,-0.03467 -11.50778,0.14935 -16.75355,2.062397 -3.16784,1.155254 -7.74983,3.273943 -10.18223,4.708196 -5.5969,3.300199 -14.75407,12.409897 -17.82496,17.732554 -1.2957,2.245801 -2.65991,4.090289 -3.03158,4.098864 -0.37166,0.0086 -3.19865,-1.217625 -6.28221,-2.724878 -7.85804,-3.841045 -14.46476,-5.363484 -23.27516,-5.363484 -8.81392,0 -15.46115,1.532116 -23.16565,5.339436 -18.05083,8.920151 -28.91684,26.524481 -28.84956,46.739971 0.0265,7.96711 1.41205,14.67442 4.45058,21.54509 l 1.83196,4.14236 -4.02938,0.92838 c -11.2691,2.59642 -24.25249,11.91831 -30.972308,22.23769 -13.845715,21.26235 -10.452156,49.11396 8.098666,66.46734 12.888742,12.05679 31.399192,17.07881 44.365752,12.03674 z"
   id="path2263" /><path
   style="fill:#666666;stroke-width:0.785276"
   d="m 404.32638,315.51163 c 0.81387,-0.55471 4.01455,-2.63554 7.11263,-4.62408 16.28232,-10.45098 29.30333,-28.43326 34.62664,-47.82007 2.55275,-9.29684 3.46852,-25.74626 1.95576,-35.13047 -1.21207,-7.51886 -4.6075,-18.07737 -7.93677,-24.68033 -7.68048,-15.23273 -21.93341,-29.6651 -36.59348,-37.05418 -2.23692,-1.12746 -4.2738,-2.38433 -4.52639,-2.79304 -0.2526,-0.4087 0.29273,-2.62401 1.21184,-4.92291 4.98113,-12.45896 6.84026,-25.25058 5.41097,-37.22973 C 402.82382,98.093338 390.4868,78.284465 371.05673,65.812517 l -5.90336,-3.789296 3.92638,0.508225 c 19.53068,2.52802 38.13077,14.244728 48.07097,30.281217 4.17144,6.729755 6.0357,8.359687 9.88507,8.642517 l 3.2401,0.23807 1.75499,5.49693 c 2.19456,6.8737 2.26379,8.73515 0.34358,9.2373 -3.1047,0.81189 -4.08015,3.85185 -4.38402,13.66266 -0.32009,10.33445 -2.01656,18.10665 -5.86721,26.88001 -1.31624,2.99893 -2.39317,6.02933 -2.39317,6.73421 0,3.07103 2.48846,5.99373 6.68238,7.84848 19.91353,8.80671 36.46655,28.61535 42.35082,50.68029 1.83457,6.87932 2.49461,23.45895 1.24281,31.21877 -4.52704,28.06298 -24.91985,51.48541 -52.3578,60.13627 -7.53737,2.37644 -15.71986,3.55786 -13.32189,1.92346 z"
   id="path2339" /><path
   style="fill:#666666;stroke-width:0.785276"
   d="m 347.19694,353.44528 c 8.92954,-5.96967 18.03961,-17.13877 20.6439,-25.30976 0.87509,-2.74562 1.08783,-2.87921 5.39399,-3.38716 2.46563,-0.29085 7.4262,-1.21318 11.02349,-2.04963 3.59729,-0.83645 6.68932,-1.52082 6.87117,-1.52082 0.87674,0 0.0853,2.5195 -2.45974,7.83003 -6.68991,13.95951 -23.20173,24.53237 -42.363,27.12591 l -3.92638,0.53145 z"
   id="path2415" /><path
   style="fill:#666666;stroke-width:0.785276"
   d="m 315.28834,60.688926 c -0.64785,-0.241239 -3.02421,-1.11883 -5.28079,-1.950202 -6.8194,-2.512405 -12.88767,-7.660739 -20.86534,-17.702198 -8.36252,-10.525882 -13.97671,-15.859966 -22.73739,-21.602974 -3.34728,-2.194291 -5.97688,-4.098708 -5.84355,-4.232036 0.13332,-0.133328 2.51864,0.11258 5.30069,0.546463 14.51996,2.264497 28.48446,9.562769 38.56087,20.153082 4.32777,4.548491 10.90037,13.919954 12.36062,17.624254 0.39821,1.010156 1.28958,3.161802 1.98082,4.781433 1.24145,2.908799 1.23509,2.944028 -0.5206,2.882791 -0.97758,-0.0341 -2.30747,-0.259374 -2.95533,-0.500613 z"
   id="path2454" /><path
   style="fill:#666666;stroke-width:0.785276"
   d="m 184.53988,352.49617 c 3.02331,-1.76336 7.13871,-4.41054 9.14533,-5.88262 l 3.6484,-2.6765 1.62462,2.75352 1.62462,2.75352 -3.03321,1.54742 c -3.62701,1.85037 -13.75003,4.74416 -16.52772,4.72466 -1.55149,-0.0109 -0.79157,-0.70645 3.51796,-3.22 z"
   id="path2493" /></svg>
